<svg width="408" height="240" xmlns="http://www.w3.org/2000/svg" xmlns:xlink="http://www.w3.org/1999/xlink" xml:space="preserve" overflow="hidden"><g><path d="M227.319 38.5855C227.319 39.7599 227.151 40.9342 226.648 42.1085 226.145 43.2829 225.641 44.1217 224.803 44.9605 223.964 45.7993 223.125 46.4704 222.118 46.9737 221.112 47.477 219.937 47.6447 218.763 47.6447L207.691 47.6447 207.691 71.8026C207.691 72.3059 207.355 72.6414 206.852 72.6414L200.141 72.6414C199.638 72.6414 199.303 72.3059 199.303 71.8026L199.303 15.4342C199.303 14.9309 199.638 14.5954 200.141 14.5954L218.26 14.5954C219.602 14.5954 220.776 14.7632 221.783 15.2664 222.789 15.7697 223.796 16.4408 224.635 17.2796 225.474 18.1184 226.145 19.125 226.648 20.1316 227.151 21.3059 227.319 22.4803 227.319 23.6546L227.319 38.5855ZM218.763 22.9835 207.691 22.9835 207.691 39.5921 218.763 39.5921 218.763 22.9835Z" fill="#1A3C6B" transform="matrix(1.00041 0 0 1 0 0.301007)"/><path d="M260.704 63.5822C260.704 64.9243 260.536 66.0987 260.033 67.1052 259.53 68.2796 258.859 69.1184 258.187 69.9572 257.349 70.796 256.51 71.4671 255.335 71.9704 254.161 72.4737 252.987 72.6414 251.812 72.6414L241.914 72.6414C240.572 72.6414 239.398 72.4737 238.391 71.9704 237.217 71.4671 236.378 70.796 235.539 69.9572 234.701 69.1184 234.03 68.1118 233.694 67.1052 233.191 65.9309 233.023 64.7566 233.023 63.5822L233.023 23.8224C233.023 22.4803 233.191 21.3059 233.694 20.2993 234.197 19.125 234.868 18.2862 235.539 17.4474 236.378 16.6085 237.217 15.9375 238.391 15.4342 239.566 14.9309 240.74 14.7632 241.914 14.7632L251.812 14.7632C253.155 14.7632 254.329 14.9309 255.335 15.4342 256.51 15.9375 257.349 16.6085 258.187 17.4474 259.026 18.2862 259.697 19.2928 260.033 20.2993 260.536 21.4737 260.704 22.648 260.704 23.8224L260.704 63.5822ZM252.316 22.9835 241.243 22.9835 241.243 64.421 252.316 64.421 252.316 22.9835Z" fill="#1A3C6B" transform="matrix(1.00041 0 0 1 0 0.301007)"/><path d="M318.079 64.0855C318.079 65.2599 317.911 66.4342 317.408 67.4408 316.905 68.4474 316.233 69.4539 315.395 70.2928 314.556 71.1316 313.549 71.6349 312.543 72.1381 311.368 72.6414 310.194 72.8092 309.02 72.8092L300.967 72.8092C299.289 72.8092 297.78 72.4737 296.437 71.6349 295.095 70.796 293.921 69.6217 293.082 68.2796 292.243 69.6217 291.237 70.796 289.895 71.6349 288.553 72.4737 287.043 72.8092 285.365 72.8092L277.312 72.8092C275.97 72.8092 274.796 72.6414 273.789 72.1381 272.615 71.6349 271.776 70.9638 270.937 70.125 270.099 69.2862 269.428 68.2796 268.924 67.273 268.421 66.0987 268.253 64.9243 268.253 63.75L268.253 15.4342C268.253 14.9309 268.589 14.5954 269.092 14.5954L275.97 14.5954C276.474 14.5954 276.809 14.9309 276.809 15.4342L276.809 64.2533 289.056 64.2533 289.056 15.4342C289.056 14.9309 289.391 14.5954 289.895 14.5954L296.773 14.5954C297.276 14.5954 297.612 14.9309 297.612 15.4342L297.612 64.2533 309.858 64.2533 309.858 15.4342C309.858 14.9309 310.194 14.5954 310.697 14.5954L317.576 14.5954C318.079 14.5954 318.414 14.9309 318.414 15.4342L318.414 64.0855Z" fill="#1A3C6B" transform="matrix(1.00041 0 0 1 0 0.301007)"/><path d="M347.605 71.8026C347.605 72.3059 347.27 72.6414 346.766 72.6414L334.687 72.6414C333.345 72.6414 332.171 72.4737 331.164 71.9704 329.99 71.4671 329.151 70.796 328.312 69.9572 327.474 69.1184 326.803 68.1118 326.299 67.1052 325.796 65.9309 325.628 64.7566 325.628 63.5822L325.628 23.8224C325.628 22.4803 325.796 21.3059 326.299 20.2993 326.803 19.125 327.474 18.2862 328.312 17.4474 329.151 16.6085 330.158 15.9375 331.164 15.4342 332.339 14.9309 333.513 14.7632 334.687 14.7632L346.766 14.7632C347.437 14.7632 347.605 15.0987 347.605 15.602L347.605 22.1447C347.605 22.8158 347.27 22.9835 346.766 22.9835L334.016 22.9835 334.016 39.5921 346.766 39.5921C347.437 39.5921 347.605 39.9276 347.605 40.4309L347.605 46.9737C347.605 47.477 347.27 47.8125 346.766 47.8125L334.016 47.8125 334.016 64.5888 346.766 64.5888C347.437 64.5888 347.605 64.9243 347.605 65.4276L347.605 71.8026Z" fill="#1A3C6B" transform="matrix(1.00041 0 0 1 0 0.301007)"/><path d="M384.01 72.1381C384.01 72.4737 383.674 72.6414 383.171 72.6414L375.622 72.6414C375.118 72.6414 374.783 72.3059 374.783 71.8026L374.783 52.3421C374.783 50.6645 374.28 49.4901 373.441 48.8191 372.602 48.148 371.428 47.8125 370.085 47.8125L363.543 47.8125 363.543 71.9704C363.543 72.4737 363.207 72.8092 362.704 72.8092L355.826 72.8092C355.322 72.8092 354.987 72.4737 354.987 71.9704L354.987 15.4342C354.987 14.9309 355.322 14.5954 355.826 14.5954L373.944 14.5954C375.286 14.5954 376.46 14.7632 377.467 15.2664 378.474 15.7697 379.48 16.4408 380.319 17.2796 381.158 18.1184 381.829 19.125 382.332 20.1316 382.835 21.3059 383.003 22.4803 383.003 23.6546L383.003 36.0691C383.003 37.5789 382.668 39.0888 381.997 40.2631 381.326 41.6053 380.487 42.6118 379.312 43.4506 380.487 44.2895 381.326 45.296 381.997 46.6381 382.668 47.9803 383.003 49.3224 383.003 50.8322L383.003 69.1184C383.003 70.125 383.171 70.6283 383.339 70.9638 383.842 71.4671 384.01 71.8026 384.01 72.1381M374.615 22.9835 363.543 22.9835 363.543 39.5921 374.615 39.5921 374.615 22.9835Z" fill="#1A3C6B" transform="matrix(1.00041 0 0 1 0 0.301007)"/><path d="M228.158 143.773C228.158 144.109 227.822 144.276 227.319 144.276L219.77 144.276C219.266 144.276 218.931 143.941 218.931 143.437L218.931 123.977C218.931 122.299 218.428 121.125 217.589 120.454 216.75 119.783 215.576 119.447 214.234 119.447L207.691 119.447 207.691 143.605C207.691 144.109 207.355 144.444 206.852 144.444L199.974 144.444C199.47 144.444 199.135 144.109 199.135 143.605L199.135 87.2368C199.135 86.7335 199.47 86.398 199.974 86.398L218.092 86.398C219.434 86.398 220.609 86.5658 221.615 87.0691 222.789 87.5723 223.628 88.2434 224.467 89.0822 225.306 89.921 225.977 90.9276 226.48 91.9342 226.984 93.1085 227.151 94.2829 227.151 95.4572L227.151 107.872C227.151 109.382 226.816 110.891 226.145 112.066 225.474 113.408 224.635 114.414 223.46 115.253 224.635 116.092 225.474 117.099 226.145 118.441 226.816 119.783 227.151 121.125 227.151 122.635L227.151 140.921C227.151 141.928 227.319 142.431 227.487 142.766 227.99 143.102 228.158 143.437 228.158 143.773M218.931 94.6184 207.859 94.6184 207.859 111.227 218.931 111.227 218.931 94.6184Z" fill="#1A3C6B" transform="matrix(1.00041 0 0 1 0 0.301007)"/><path d="M263.556 143.437C263.556 143.941 263.22 144.276 262.717 144.276L255.839 144.276C255.335 144.276 255 143.941 255 143.437L255 119.447 243.928 119.447 243.928 143.605C243.928 144.109 243.592 144.444 243.089 144.444L236.378 144.444C235.875 144.444 235.539 144.109 235.539 143.605L235.539 95.4572C235.539 94.1151 235.707 92.9408 236.21 91.9342 236.714 90.7598 237.385 89.921 238.224 89.0822 239.062 88.2434 240.069 87.5723 241.076 87.0691 242.25 86.5658 243.424 86.398 244.599 86.398L254.497 86.398C255.839 86.398 257.013 86.5658 258.02 87.0691 259.194 87.5723 260.033 88.2434 260.872 89.0822 261.71 89.921 262.382 90.9276 262.885 91.9342 263.388 93.1085 263.556 94.2829 263.556 95.4572L263.556 143.437ZM255 94.6184 243.928 94.6184 243.928 111.227 255 111.227 255 94.6184Z" fill="#1A3C6B" transform="matrix(1.00041 0 0 1 0 0.301007)"/><path d="M299.122 135.217C299.122 136.559 298.954 137.734 298.451 138.74 297.947 139.914 297.276 140.753 296.437 141.592 295.599 142.431 294.592 143.102 293.585 143.605 292.411 144.109 291.237 144.276 290.062 144.276L280.164 144.276C278.822 144.276 277.648 144.109 276.641 143.605 275.467 143.102 274.628 142.431 273.789 141.592 272.951 140.753 272.28 139.747 271.776 138.74 271.273 137.566 271.105 136.391 271.105 135.217L271.105 95.4572C271.105 94.1151 271.273 92.9408 271.776 91.9342 272.28 90.7598 272.951 89.921 273.789 89.0822 274.628 88.2434 275.635 87.5723 276.641 87.0691 277.816 86.5658 278.99 86.398 280.164 86.398L290.062 86.398C291.405 86.398 292.579 86.5658 293.585 87.0691 294.76 87.5723 295.599 88.2434 296.437 89.0822 297.276 89.921 297.947 90.9276 298.451 91.9342 298.954 93.1085 299.122 94.2829 299.122 95.4572L299.122 101.832C299.122 102.503 298.786 102.671 298.283 102.671L291.572 102.671C291.069 102.671 290.733 102.336 290.733 101.832L290.733 94.6184 279.661 94.6184 279.661 136.056 290.733 136.056 290.733 129.178C290.733 128.674 291.069 128.339 291.572 128.339L298.283 128.339C298.786 128.339 299.122 128.674 299.122 129.178L299.122 135.217Z" fill="#1A3C6B" transform="matrix(1.00041 0 0 1 0 0.301007)"/><path d="M314.724 143.437C314.724 143.941 314.388 144.276 313.885 144.276L307.007 144.276C306.503 144.276 306.168 143.941 306.168 143.437L306.168 87.2368C306.168 86.7335 306.503 86.398 307.007 86.398L313.885 86.398C314.388 86.398 314.724 86.7335 314.724 87.2368L314.724 143.437Z" fill="#1A3C6B" transform="matrix(1.00041 0 0 1 0 0.301007)"/><path d="M352.135 143.437C352.135 143.941 351.799 144.276 351.296 144.276L344.585 144.276C344.082 144.276 343.747 143.941 343.747 143.437L343.747 94.6184 331.5 94.6184 331.5 143.437C331.5 143.941 331.164 144.276 330.661 144.276L323.951 144.276C323.447 144.276 323.112 143.941 323.112 143.437L323.112 87.2368C323.112 86.7335 323.447 86.398 323.951 86.398L330.661 86.398C331.332 86.398 331.5 86.7335 331.5 87.2368L331.5 89.25C332.339 88.4112 333.178 87.7401 334.352 87.2368 335.526 86.7335 336.701 86.5658 338.043 86.5658L343.076 86.5658C344.418 86.5658 345.592 86.7335 346.599 87.2368 347.773 87.7401 348.612 88.4112 349.451 89.25 350.289 90.0888 350.96 91.0954 351.464 92.102 351.967 93.2763 352.135 94.4506 352.135 95.625L352.135 143.437Z" fill="#1A3C6B" transform="matrix(1.00041 0 0 1 0 0.301007)"/><path d="M387.533 135.217C387.533 136.559 387.365 137.734 386.862 138.74 386.358 139.914 385.687 140.753 385.016 141.592 384.178 142.431 383.339 143.102 382.164 143.605 380.99 144.109 379.816 144.276 378.641 144.276L368.743 144.276C367.401 144.276 366.227 144.109 365.22 143.605 364.046 143.102 363.207 142.431 362.368 141.592 361.53 140.753 360.858 139.747 360.523 138.74 360.02 137.566 359.852 136.391 359.852 135.217L359.852 95.4572C359.852 94.1151 360.02 92.9408 360.523 91.9342 361.026 90.7598 361.697 89.921 362.368 89.0822 363.207 88.2434 364.046 87.5723 365.22 87.0691 366.395 86.5658 367.569 86.398 368.743 86.398L378.641 86.398C379.983 86.398 381.158 86.5658 382.164 87.0691 383.339 87.5723 384.178 88.2434 385.016 89.0822 385.855 89.921 386.526 90.9276 386.862 91.9342 387.365 93.1085 387.533 94.2829 387.533 95.4572L387.533 100.993C387.533 101.497 387.197 101.832 386.694 101.832L379.983 101.832C379.48 101.832 379.145 101.497 379.145 100.993L379.145 94.6184 368.072 94.6184 368.072 136.056 379.145 136.056 379.145 119.447 375.957 119.447C375.286 119.447 375.118 119.112 375.118 118.609L375.118 112.066C375.118 111.562 375.454 111.227 375.957 111.227L386.862 111.227C387.365 111.227 387.701 111.562 387.701 112.066L387.701 135.217Z" fill="#1A3C6B" transform="matrix(1.00041 0 0 1 0 0.301007)"/><path d="M226.48 206.852C226.48 208.194 226.312 209.368 225.809 210.375 225.306 211.549 224.635 212.388 223.964 213.227 223.125 214.066 222.286 214.737 221.112 215.24 219.937 215.743 218.763 215.911 217.589 215.911L207.691 215.911C206.349 215.911 205.174 215.743 204.168 215.24 202.993 214.737 202.155 214.066 201.316 213.227 200.477 212.388 199.806 211.382 199.47 210.375 198.967 209.201 198.799 208.026 198.799 206.852L198.799 201.316C198.799 200.812 199.135 200.477 199.638 200.477L206.349 200.477C207.02 200.477 207.187 200.812 207.187 201.316L207.187 207.691 218.26 207.691 218.26 196.283 199.303 182.359C199.135 182.191 199.135 182.023 198.967 181.687 198.799 181.52 198.799 181.184 198.799 180.849L198.799 167.26C198.799 165.918 198.967 164.743 199.47 163.737 199.974 162.562 200.645 161.724 201.316 160.885 202.155 160.046 202.993 159.375 204.168 158.872 205.342 158.368 206.516 158.201 207.691 158.201L217.589 158.201C218.931 158.201 220.105 158.368 221.112 158.872 222.286 159.375 223.125 160.046 223.964 160.885 224.803 161.724 225.474 162.73 225.809 163.737 226.312 164.911 226.48 166.085 226.48 167.26L226.48 172.796C226.48 173.299 226.145 173.635 225.641 173.635L218.931 173.635C218.428 173.635 218.092 173.299 218.092 172.796L218.092 166.421 207.02 166.421 207.02 177.829 225.809 191.753C226.312 192.089 226.48 192.592 226.48 193.095L226.48 206.852Z" fill="#1A3C6B" transform="matrix(1.00041 0 0 1 0 0.301007)"/><path d="M255.168 215.24C255.168 215.743 254.832 216.079 254.329 216.079L242.25 216.079C240.908 216.079 239.733 215.911 238.727 215.408 237.553 214.905 236.714 214.234 235.875 213.395 235.036 212.556 234.365 211.549 233.862 210.543 233.359 209.368 233.191 208.194 233.191 207.02L233.191 167.092C233.191 165.75 233.359 164.576 233.862 163.569 234.365 162.395 235.036 161.556 235.875 160.717 236.714 159.878 237.72 159.207 238.727 158.704 239.901 158.201 241.076 158.033 242.25 158.033L254.329 158.033C255 158.033 255.168 158.368 255.168 158.872L255.168 165.414C255.168 166.085 254.832 166.253 254.329 166.253L241.579 166.253 241.579 182.862 254.329 182.862C255 182.862 255.168 183.197 255.168 183.701L255.168 190.243C255.168 190.747 254.832 191.082 254.329 191.082L241.579 191.082 241.579 207.859 254.329 207.859C255 207.859 255.168 208.194 255.168 208.697L255.168 215.24Z" fill="#1A3C6B" transform="matrix(1.00041 0 0 1 0 0.301007)"/><path d="M291.405 215.408C291.405 215.743 291.069 215.911 290.566 215.911L283.016 215.911C282.513 215.911 282.178 215.576 282.178 215.072L282.178 195.444C282.178 193.766 281.674 192.592 280.835 191.921 279.997 191.25 278.822 190.914 277.48 190.914L270.937 190.914 270.937 215.072C270.937 215.576 270.602 215.911 270.099 215.911L263.388 215.911C262.885 215.911 262.549 215.576 262.549 215.072L262.549 158.872C262.549 158.368 262.885 158.033 263.388 158.033L281.507 158.033C282.849 158.033 284.023 158.201 285.03 158.704 286.204 159.207 287.043 159.878 287.882 160.717 288.72 161.556 289.391 162.562 289.895 163.569 290.398 164.743 290.566 165.918 290.566 167.092L290.566 179.507C290.566 181.016 290.23 182.526 289.559 183.701 288.888 185.043 288.049 186.049 286.875 186.888 288.049 187.727 288.888 188.734 289.559 190.076 290.23 191.418 290.566 192.76 290.566 194.27L290.566 212.556C290.566 213.562 290.733 214.066 290.901 214.401 291.237 214.737 291.405 215.072 291.405 215.408M282.178 166.253 271.105 166.253 271.105 182.862 282.178 182.862 282.178 166.253Z" fill="#1A3C6B" transform="matrix(1.00041 0 0 1 0 0.301007)"/><path d="M307.342 215.24C307.342 215.743 307.007 216.079 306.503 216.079L299.625 216.079C299.122 216.079 298.786 215.743 298.786 215.24L298.786 158.872C298.786 158.368 299.122 158.033 299.625 158.033L306.503 158.033C307.007 158.033 307.342 158.368 307.342 158.872L307.342 215.24Z" fill="#1A3C6B" transform="matrix(1.00041 0 0 1 0 0.301007)"/><path d="M336.868 215.24C336.868 215.743 336.533 216.079 336.03 216.079L323.951 216.079C322.608 216.079 321.434 215.911 320.428 215.408 319.253 214.905 318.414 214.234 317.576 213.395 316.737 212.556 316.066 211.549 315.562 210.543 315.059 209.368 314.891 208.194 314.891 207.02L314.891 167.092C314.891 165.75 315.059 164.576 315.562 163.569 316.066 162.395 316.737 161.556 317.576 160.717 318.414 159.878 319.421 159.207 320.428 158.704 321.602 158.201 322.776 158.033 323.951 158.033L336.03 158.033C336.701 158.033 336.868 158.368 336.868 158.872L336.868 165.414C336.868 166.085 336.533 166.253 336.03 166.253L323.28 166.253 323.28 182.862 336.03 182.862C336.701 182.862 336.868 183.197 336.868 183.701L336.868 190.243C336.868 190.747 336.533 191.082 336.03 191.082L323.28 191.082 323.28 207.859 336.03 207.859C336.701 207.859 336.868 208.194 336.868 208.697L336.868 215.24Z" fill="#1A3C6B" transform="matrix(1.00041 0 0 1 0 0.301007)"/><path d="M371.428 206.852C371.428 208.194 371.26 209.368 370.757 210.375 370.253 211.549 369.582 212.388 368.911 213.227 368.072 214.066 367.233 214.737 366.059 215.24 364.885 215.743 363.71 215.911 362.536 215.911L352.638 215.911C351.296 215.911 350.122 215.743 349.115 215.24 347.941 214.737 347.102 214.066 346.263 213.227 345.424 212.388 344.753 211.382 344.418 210.375 343.914 209.201 343.747 208.026 343.747 206.852L343.747 201.316C343.747 200.812 344.082 200.477 344.585 200.477L351.296 200.477C351.967 200.477 352.135 200.812 352.135 201.316L352.135 207.691 363.207 207.691 363.207 196.283 344.25 182.359C344.082 182.191 344.082 182.023 343.914 181.687 343.747 181.52 343.747 181.184 343.747 180.849L343.747 167.26C343.747 165.918 343.914 164.743 344.418 163.737 344.921 162.562 345.592 161.724 346.263 160.885 347.102 160.046 347.941 159.375 349.115 158.872 350.289 158.368 351.464 158.201 352.638 158.201L362.536 158.201C363.878 158.201 365.053 158.368 366.059 158.872 367.233 159.375 368.072 160.046 368.911 160.885 369.75 161.724 370.421 162.73 370.757 163.737 371.26 164.911 371.428 166.085 371.428 167.26L371.428 172.796C371.428 173.299 371.092 173.635 370.589 173.635L363.878 173.635C363.375 173.635 363.039 173.299 363.039 172.796L363.039 166.421 351.967 166.421 351.967 177.829 370.757 191.753C371.26 192.089 371.428 192.592 371.428 193.095L371.428 206.852Z" fill="#1A3C6B" transform="matrix(1.00041 0 0 1 0 0.301007)"/><path d="M162.059 150.987C163.234 149.98 166.924 134.714 170.447 132.868 173.97 131.023 175.816 123.809 176.655 112.234 177.493 100.658 161.556 65.4276 161.22 62.2401 160.885 59.0526 147.967 44.2895 144.78 43.2829 141.592 42.2763 137.566 43.4506 135.553 41.773 134.378 40.7664 136.391 36.7401 136.391 36.7401L139.243 37.5789C149.645 15.0987 135.385 14.7632 135.385 14.7632L110.556 14.7632 109.046 19.125C107.704 19.125 100.155 20.4671 100.155 20.4671L102.839 21.1382 109.046 22.648 108.543 26.3388 107.704 28.5197 103.51 34.727 107.033 36.5724C107.033 36.5724 105.523 45.7993 108.878 47.6447 111.227 48.8191 119.447 47.6447 120.622 48.148 121.964 48.8191 128.339 52.6776 128.339 52.6776 128.339 52.6776 124.984 59.5559 124.816 61.7368 124.648 63.9177 126.158 64.2533 126.493 65.0921 126.661 65.9309 131.359 76.5 131.359 76.5L128.171 93.4441C128.171 93.4441 107.368 82.875 104.684 82.0362 101.832 81.1974 98.6447 81.3651 98.1414 81.8684 97.4704 82.3717 94.7862 88.0756 95.1217 89.25 95.4572 90.4243 97.9737 89.5855 97.9737 89.5855L98.477 92.9408C98.477 92.9408 94.4506 92.773 92.2697 93.6118 90.0888 94.4506 72.3059 117.77 72.3059 117.77 72.3059 117.77 67.9441 117.266 62.5756 116.428 62.5756 116.428 45.1283 111.059 40.9342 109.717 36.7401 108.207 35.2303 110.724 35.2303 110.724 35.2303 110.724 30.5329 120.286 29.5263 120.286 29.5263 120.286 29.5263 120.286 29.5263 120.286 29.3585 120.286 29.3585 120.286 29.1908 120.286 27.3454 120.454 25.6678 120.789 25.6678 120.789L22.1447 128.003 34.2237 135.888 33.8882 137.398C23.4868 139.243 15.602 148.303 15.602 159.207 15.602 171.454 25.5 181.52 37.9145 181.52 50.1612 181.52 60.227 171.622 60.227 159.207 60.227 157.865 60.0592 156.523 59.8914 155.181L71.6349 160.214 71.6349 169.105 106.026 184.036 111.898 177.326 120.454 181.016C117.434 184.707 115.421 189.572 115.421 194.773 115.421 206.852 125.151 216.582 137.23 216.582 149.309 216.582 159.039 206.852 159.039 194.773 159.039 192.928 158.872 191.082 158.368 189.405 162.898 191.418 168.099 193.599 168.937 193.599 170.447 193.599 172.125 185.21 171.286 184.036 170.447 182.862 168.937 180.01 168.937 180.01 168.937 180.01 172.125 167.26 173.299 163.569 174.809 158.872 172.796 159.375 169.776 157.865L163.234 154.51 160.214 153C160.382 152.832 160.885 151.826 162.059 150.987M97.3026 107.536C95.7927 111.562 91.0954 138.237 91.0954 138.237L81.1974 132.868C82.0362 130.855 86.0625 123.138 86.0625 123.138L84.2171 121.125 98.9802 96.296 105.187 101.497C105.187 101.497 98.9802 103.51 97.3026 107.536M129.01 143.437C121.964 141.928 119.447 154.51 119.447 154.51 119.447 154.51 110.053 148.806 108.039 148.47 108.039 148.47 107.872 148.638 107.872 148.47 107.704 148.303 107.704 148.303 108.039 148.47 109.717 146.96 113.576 121.964 116.26 119.615 119.112 117.266 120.286 116.428 125.655 118.105 131.023 119.615 133.539 143.27 133.539 144.109 133.539 143.941 135.217 144.78 129.01 143.437" fill="#FFFFFF" transform="matrix(1.00041 0 0 1 0 0.301007)"/><path d="M107.704 148.638C107.704 148.638 107.872 148.638 107.872 148.638 107.704 148.47 107.536 148.47 107.704 148.638" fill="#1A3C6B" transform="matrix(1.00041 0 0 1 0 0.301007)"/><path d="M133.372 144.109C133.204 143.27 130.687 119.783 125.487 118.105 120.118 116.595 118.944 117.266 116.092 119.615 113.408 121.964 109.717 146.96 107.872 148.47 109.885 148.806 119.28 154.51 119.28 154.51 119.28 154.51 121.796 141.928 128.842 143.437 135.217 144.78 133.372 143.941 133.372 144.109" fill="#C31F48" transform="matrix(1.00041 0 0 1 0 0.301007)"/><path d="M180.178 15.2664 137.23 15.2664C140.753 16.273 146.96 20.6349 138.908 37.5789L136.056 36.7401C136.056 36.7401 134.043 40.7664 135.217 41.773 137.062 43.4506 141.257 42.2763 144.444 43.2829 147.632 44.2895 160.382 59.0526 160.885 62.2401 161.22 65.4276 177.158 100.658 176.319 112.234 175.48 123.809 173.635 131.023 170.112 132.868 166.589 134.714 162.898 150.148 161.724 150.987 160.549 151.993 160.046 152.832 160.046 152.832L163.066 154.342 169.609 157.697C172.46 159.207 174.641 158.704 173.132 163.401 171.789 167.092 168.77 179.842 168.77 179.842 168.77 179.842 170.447 182.694 171.118 183.868 171.957 185.043 170.28 193.431 168.77 193.431 167.931 193.431 162.562 191.25 158.201 189.237 158.704 190.914 158.872 192.76 158.872 194.605 158.872 205.342 151.155 214.234 140.921 216.079L180.01 216.079C185.546 216.079 190.076 211.549 190.076 206.013L190.076 25.3322C190.243 19.6283 185.714 15.2664 180.178 15.2664" fill="#C31F48" transform="matrix(1.00041 0 0 1 0 0.301007)"/><path d="M33.7204 137.398 34.0559 135.888 21.977 128.003 25.5 120.789C25.5 120.789 27.1776 120.454 29.023 120.286 29.1908 120.286 29.1908 120.286 29.3585 120.286 29.3585 120.286 29.3585 120.286 29.3585 120.286 30.1974 120.118 35.0625 110.724 35.0625 110.724 35.0625 110.724 36.5724 108.207 40.7664 109.717 44.9605 111.227 62.4079 116.428 62.4079 116.428 67.7763 117.266 72.1381 117.77 72.1381 117.77 72.1381 117.77 89.921 94.4506 92.102 93.6118 94.2829 92.773 98.3092 92.9408 98.3092 92.9408L97.8059 89.5855C97.8059 89.5855 95.1217 90.4243 94.9539 89.25 94.6184 88.0756 97.4704 82.3717 97.9737 81.8684 98.6447 81.3651 101.832 81.1974 104.516 82.0362 107.368 82.875 128.003 93.4441 128.003 93.4441L131.191 76.5C131.191 76.5 126.661 66.0987 126.326 65.0921 126.158 64.2533 124.48 63.9177 124.648 61.7368 124.816 59.5559 128.171 52.6776 128.171 52.6776 128.171 52.6776 121.796 48.8191 120.454 48.148 119.112 47.477 111.059 48.8191 108.711 47.6447 105.355 45.9671 106.865 36.5724 106.865 36.5724L103.342 34.727 107.536 28.5197 108.207 26.5066 108.711 22.8158 102.503 21.3059 99.8191 20.6349C99.8191 20.6349 107.368 19.2928 108.711 19.2928L110.053 15.2664 25.6678 15.2664C20.1316 15.2664 15.602 19.796 15.602 25.3322L15.602 157.53C16.4408 147.296 23.9901 139.076 33.7204 137.398" fill="#1A3C6B" transform="matrix(1.00041 0 0 1 0 0.301007)"/><path d="M91.0954 138.237C91.0954 138.237 95.625 111.562 97.3026 107.536 98.8125 103.51 105.187 101.497 105.187 101.497L98.9802 96.296 84.0493 121.125 85.8947 123.138C85.8947 123.138 81.8684 131.023 81.0296 132.868L91.0954 138.237Z" fill="#1A3C6B" transform="matrix(1.00041 0 0 1 0 0.301007)"/><path d="M115.421 194.773C115.421 189.572 117.266 184.707 120.454 181.016L111.898 177.326 106.026 184.036 71.6349 169.105 71.6349 160.214 59.8914 155.181C60.0592 156.523 60.227 157.865 60.227 159.207 60.227 171.454 50.3289 181.52 37.9145 181.52 26.171 181.52 16.6085 172.46 15.7697 160.885L15.7697 206.349C15.7697 211.885 20.2993 216.414 25.8355 216.414L133.539 216.414C123.138 214.401 115.421 205.51 115.421 194.773" fill="#1A3C6B" transform="matrix(1.00041 0 0 1 0 0.301007)"/></g></svg>