<?xml version="1.0" encoding="UTF-8" standalone="no"?>
<svg
   version="1.1"
   id="Layer_1"
   x="0px"
   y="0px"
   width="850"
   viewBox="0 0 850 850"
   enable-background="new 0 0 1024 1024"
   xml:space="preserve"
   height="850"
   xmlns="http://www.w3.org/2000/svg"
   xmlns:svg="http://www.w3.org/2000/svg"><defs
   id="defs3" />


<path
   fill="#000000"
   opacity="1"
   stroke="none"
   d="m 461.91887,750.05014 c 21.0766,-2.88483 41.38984,-7.08252 61.16907,-13.75269 56.35657,-19.0053 103.36707,-51.59246 141.71729,-96.93609 33.87457,-40.05188 55.40551,-86.02667 65.64135,-137.28778 5.38984,-26.99201 7.50043,-54.25965 5.81617,-81.88629 -2.89838,-47.54251 -15.71454,-92.06076 -39.63465,-133.17231 -24.69458,-42.44278 -57.4162,-77.47342 -98.87622,-104.13647 -16.55792,-10.64841 -33.59827,-20.38478 -51.47241,-28.65086 -1.79071,-0.82813 -3.64209,-1.65067 -5.09326,-3.4738 2.18158,-2.57157 5.13403,-4.09824 7.91394,-5.76699 18.5683,-11.14628 37.23804,-22.12494 55.73834,-33.38241 3.94019,-2.39763 7.09772,-2.28922 10.99939,0.003 77.50598,45.526 133.70899,109.56462 167.72888,192.86665 11.62946,28.47644 19.16107,58.02005 23.10883,88.5625 2.84973,22.04767 3.56988,44.15976 2.62243,66.26645 -2.5191,58.77582 -17.7265,114.26782 -45.78826,165.96216 -29.4444,54.24121 -70.20423,98.53473 -120.6695,133.96369 -39.39746,27.65875 -82.19263,47.99383 -129.10504,59.16082 -17.93897,4.27015 -36.16358,6.93909 -54.59943,8.54682 -19.97479,1.742 -39.93588,1.71582 -59.83896,0.55218 C 364.77068,825.47017 331.11074,818.54286 298.54156,806.7339 246.95305,788.0287 201.22963,759.81367 161.08262,722.37398 99.516698,664.95991 61.736788,594.57381 46.284019,512.11403 c -5.062081,-27.01245 -6.608681,-54.31067 -5.753151,-81.92411 1.25972,-40.65969 8.663411,-79.93423 22.37152,-118.0823 16.36553,-45.54337 40.977162,-86.25488 73.117772,-122.37958 35.91426,-40.36607 78.36759,-72.06669 127.34711,-94.908293 30.79233,-14.35999 63.05911,-24.20588 96.59717,-29.43561 17.71853,-2.76294 35.59243,-4.8636 53.63611,-4.37737 3.64129,0.0981 7.29632,-0.49267 10.9501,-0.64071 6.76971,-0.27423 7.44119,-0.92321 7.56973,-7.56872 0.17719,-9.15949 -0.35797,-18.33289 0.53397,-27.478601 0.0944,-0.968193 -0.14453,-2.024597 1.86746,-3.629967 45.4617,26.682708 91.72824,52.982138 137.30521,80.666391 -2.00592,3.55606 -4.71003,4.28224 -6.9433,5.58493 -42.01447,24.50789 -84.04181,48.9939 -126.08411,73.45418 -6.10388,3.55125 -6.8522,3.05972 -6.83935,-4.09662 0.018,-9.99861 0.11715,-19.99766 0.0485,-29.99562 -0.0452,-6.5851 -2.12317,-8.67738 -8.72138,-8.7186 -34.76947,-0.21724 -68.52401,5.7517 -101.37146,16.97769 -41.45733,14.16851 -78.06384,36.4395 -109.78772,66.60936 -41.75029,39.70508 -70.60724,87.17081 -85.92106,142.87882 -9.0174,32.80313 -11.86092,66.25806 -9.45711,99.89719 4.96248,69.44525 30.17209,130.76916 76.66421,183.05932 46.86954,52.7146 105.33512,84.63788 174.2497,98.27228 24.1366,4.77539 48.45892,6.38776 72.96896,5.7063 6.95789,-0.19342 13.89167,-1.25232 21.28601,-1.93384"
   id="path1" /><path
   fill="#000000"
   opacity="1"
   stroke="none"
   d="m 399.32421,201.22064 c 10.79388,-1.67776 21.24628,-2.28955 31.68121,-3.1076 3.81885,-0.29935 5.65497,0.60144 5.80066,5.06366 0.95191,29.15683 0.19104,58.31347 0.28638,87.4686 0.10632,32.49462 0.0695,64.98965 0.10437,97.48452 0.006,5.87924 -1.2125,6.91349 -7.13916,6.28186 -3.13828,-0.33447 -6.31986,-0.72961 -9.45148,-0.55447 -5.13428,0.28717 -7.88669,3.49188 -7.43695,8.05081 0.43317,4.39139 3.14121,6.155 8.65271,5.19559 8.77527,-1.52753 17.58441,-1.40839 26.36414,-0.5213 2.87634,0.29059 3.91021,-1.26279 5.1231,-3.00678 19.021,-27.34976 37.93671,-54.77316 57.04663,-82.06049 21.59412,-30.83444 43.47242,-61.47061 64.92536,-92.40231 3.21808,-4.63998 6.8952,-5.02576 11.09961,-3.46408 7.77417,2.88767 14.2998,7.87345 19.70404,14.11926 2.86682,3.3133 1.45428,6.88871 -0.69702,10.12894 -7.36872,11.09869 -14.80689,22.15161 -22.12024,33.28656 -31.45398,47.8902 -62.87164,95.80426 -94.31201,143.7034 -0.72956,1.11151 -1.52521,2.18726 -2.36914,3.21475 -2.38257,2.90088 -3.01776,5.61487 -1.44294,9.52375 3.62763,9.00369 4.68561,18.46377 0.66339,27.6716 -1.84155,4.21576 -0.48571,6.8139 2.41688,9.62261 13.88928,13.43982 27.73852,26.922 41.50091,40.4917 14.83234,14.62458 29.5592,29.35614 44.31781,44.05536 5.38116,5.3595 5.5824,8.61963 0.98944,14.80945 -2.89715,3.90448 -6.34906,7.26715 -10.08649,10.36005 -6.33148,5.23974 -9.98815,5.41943 -16.27716,-0.0502 -11.81524,-10.27588 -23.43725,-20.77393 -35.15136,-31.16632 -18.56897,-16.47388 -37.1521,-32.93183 -55.71582,-49.41169 -1.98334,-1.76068 -4.04914,-2.74994 -6.81507,-1.9375 -8.00476,2.3509 -16.18429,2.38172 -24.17001,0.40754 -4.02277,-0.99457 -6.16376,0.053 -8.28555,3.21319 -1.76102,2.6228 -3.73996,5.06671 -4.88095,8.36994 4.82827,2.98761 10.06344,1.85443 15.05944,2.00231 7.48105,0.22132 7.57578,0.10706 7.87851,7.51246 1.07514,26.3042 0.0745,52.61023 0.0367,78.91595 -0.0385,26.81085 0.65814,53.62525 0.40899,80.43231 -0.16095,17.31794 0.88825,14.10382 -13.91455,13.52777 -40.59842,-1.57983 -79.30813,-10.97631 -115.20553,-30.53125 -32.53299,-17.72216 -59.4747,-41.95269 -82.23838,-71.02948 -25.05691,-32.00598 -39.01858,-68.76055 -45.50323,-108.42724 -4.84189,-29.61792 -3.87984,-59.24793 2.79062,-88.66672 15.22137,-67.1308 52.47128,-118.91302 108.9552,-157.44351 11.58957,-7.90582 23.72128,-14.8328 36.56689,-20.48364 1.776,-0.78122 3.46622,-2.03428 6.19098,-1.49732 1.21753,4.73572 0.49066,9.68259 0.21713,14.56183 -0.58853,10.49857 0.46781,20.96704 0.37796,31.45422 -0.0272,3.17023 1.56412,4.7367 4.9101,4.97419 6.65433,0.47232 13.25632,0.872 19.94257,0.0995 4.25576,-0.4917 5.7308,-2.51223 5.70871,-6.51626 -0.0938,-16.99781 0.0893,-33.99979 -0.25236,-50.9917 -0.0781,-3.88461 1.34989,-5.42832 4.60819,-6.37818 9.42609,-2.74807 19.05954,-4.53109 29.13672,-6.35568 m 28.47375,436.63968 c 2.17749,-1.1297 2.14301,-3.20776 2.1478,-5.20386 0.0352,-14.64508 0.1142,-29.29071 0.0149,-43.93505 -0.0402,-5.92365 -1.28512,-6.99116 -7.1224,-7.00123 -15.31223,-0.0263 -30.62452,-0.0309 -45.93677,-0.0178 -2.6456,0.002 -4.73114,-0.0712 -5.20419,-3.69702 -0.48706,-3.73333 -4.4307,-4.90173 -6.36817,-1.80621 -3.08224,4.92462 -7.3002,4.82562 -12.07364,4.68701 -4.14248,-0.12024 -8.30041,0.38898 -12.4544,0.53888 -4.42695,0.15985 -6.5018,1.98773 -6.39405,6.80994 0.26773,11.97753 0.0693,23.96515 0.0958,35.94861 0.0367,16.60406 -1.09967,14.20788 14.07968,14.24462 26.12497,0.0633 52.2507,-0.20733 79.21545,-0.56793 M 373.50094,286.90903 c -0.003,12.31714 -0.0101,24.6343 -0.008,36.95144 0.001,7.14493 0.7721,8.1041 7.92065,8.16465 14.31348,0.12121 28.62882,0.002 42.94303,0.0659 4.69992,0.0208 6.51251,-2.28628 6.47827,-6.80929 -0.1033,-13.64774 -0.0319,-27.29675 -0.11591,-40.94473 -0.0163,-2.65125 -0.38687,-5.30417 -0.66452,-7.94892 -0.33221,-3.16464 -2.11566,-4.69549 -5.32568,-4.68875 -15.14651,0.0319 -30.29343,-0.0178 -45.43951,0.0733 -3.87571,0.0233 -6.27863,1.69941 -5.83744,6.15982 0.2609,2.63743 0.0488,5.32163 0.0491,8.97654 m -99.6139,94.93097 c -0.004,-13.66455 -0.0934,-27.32996 0.0412,-40.99317 0.0381,-3.86188 -1.32455,-5.29626 -5.25335,-5.25555 -15.16263,0.15704 -30.3285,0.13977 -45.49177,0.0157 -4.30187,-0.0351 -5.82903,1.61619 -5.77322,5.94953 0.18897,14.6618 0.0615,29.32779 0.0477,43.99216 -0.008,8.6774 0.79224,9.5357 9.28564,9.55133 11.66483,0.0215 23.33014,0.0562 34.99445,-0.027 11.52548,-0.0823 12.32864,2.29086 12.14941,-13.23297 m -0.0901,80.70294 c -0.28214,-2.38068 -1.92115,-2.84198 -3.94312,-2.84033 -15.66083,0.0129 -31.32171,0.0264 -46.98251,0.005 -3.66577,-0.005 -5.57147,1.625 -5.62174,5.39551 -0.20184,15.1502 -0.54556,30.29919 -0.62997,45.44977 -0.0337,6.06707 1.35461,7.36443 7.39825,7.40875 14.16062,0.10388 28.32273,0.10955 42.48346,0.0281 5.7905,-0.0333 7.32553,-1.68817 7.34287,-7.58398 0.046,-15.66052 0.016,-31.32129 -0.0472,-47.86322 M 331.05301,274.1444 c -0.95355,-1.07212 -2.19379,-1.45826 -3.5777,-1.46106 -15.47104,-0.0316 -30.94214,-0.0821 -46.41312,-0.0653 -2.97854,0.003 -4.62814,1.59573 -4.62564,4.67166 0.0136,16.80212 0.0192,33.60428 0.0627,50.40634 0.007,2.81778 1.54269,4.31845 4.36438,4.32053 15.13855,0.0111 30.27728,0.0333 45.41549,-0.0426 3.99866,-0.02 5.99408,-2.02533 5.88639,-6.2768 -0.1727,-6.81573 0.0967,-13.64221 -0.0534,-20.45901 -0.22281,-10.12552 0.79126,-20.27594 -1.05917,-31.09375 m -16.39859,182.94012 c 3.66357,-9.8e-4 7.3457,-0.23505 10.98617,0.0545 4.8765,0.38776 6.97879,-1.3496 6.86743,-6.45965 -0.33718,-15.47327 -0.3984,-30.95288 -0.51599,-46.43036 -0.0283,-3.72897 -1.79263,-5.52051 -5.49353,-5.51807 -14.48761,0.01 -28.97558,-0.0524 -43.46255,0.0445 -4.33597,0.029 -6.64783,2.20148 -6.61597,6.87103 0.10324,15.15299 0.14209,30.30856 -0.0425,45.46011 -0.057,4.67756 1.9267,6.0965 6.30542,6.02363 10.32163,-0.17164 20.64819,-0.0494 31.97153,-0.0457 m -1.99744,121.18829 c 4.83212,0.005 9.66434,-0.007 14.49634,0.0203 2.94525,0.0168 4.79385,-1.06403 4.79718,-4.33338 0.0159,-15.66052 0.10467,-31.32116 0.0606,-46.98144 -0.009,-3.3454 -1.88675,-5.23432 -5.36542,-5.23023 -11.83051,0.014 -23.67123,-0.25891 -35.48856,0.14606 -10.8695,0.37256 -14.306,3.94049 -14.54699,14.58746 -0.27896,12.32477 -0.0414,24.66065 -0.2215,36.98877 -0.0575,3.935 1.94418,4.78644 5.27582,4.77027 9.99734,-0.0484 19.99527,0.0124 30.99252,0.0322 M 360.61947,459.5354 c -6.82746,0.01 -13.65497,0.005 -20.48233,0.0346 -3.80903,0.0162 -5.73029,1.62622 -5.69327,5.77832 0.13959,15.65723 0.1001,31.31647 0.0388,46.97468 -0.0157,3.99981 1.75891,5.78045 5.73724,5.74182 7.16208,-0.0695 14.32614,-0.0554 21.48794,0.0365 2.57477,0.033 4.36591,-0.94976 5.91916,-2.98803 7.26535,-9.53388 14.53122,-19.07111 22.01709,-28.43103 2.2648,-2.83179 2.37418,-5.09686 0.34339,-7.99817 -3.00549,-4.29376 -4.35449,-9.27197 -5.44525,-14.36231 -1.32584,-6.18731 -0.45511,-12.24963 0.5227,-18.3338 0.51035,-3.17541 -0.72946,-5.63913 -3.29175,-7.28006 -2.40329,-1.53921 -5.01959,-2.12188 -6.96405,0.8404 -1.17382,1.78836 -1.99707,-1.98868 -3.31729,0.28009 0,2.93576 0.0659,6.26138 -0.0125,9.58364 -0.22397,9.49866 2.41763,10.16034 -10.85989,10.12336 m -163.67957,-60.0459 c -4.4668,-0.57807 -6.51651,1.5343 -7.49948,5.83398 -3.56613,15.59919 -5.452,31.33921 -5.04126,47.35559 0.0836,3.25885 1.64688,4.44696 4.63177,4.43818 6.81455,-0.0201 13.62973,-0.0795 20.44355,-0.0128 3.76483,0.0368 5.4863,-1.7074 5.47485,-5.43128 -0.049,-15.95602 -0.0969,-31.91226 -0.0533,-47.86819 0.008,-2.91864 -1.04108,-4.28668 -4.06394,-4.23465 -4.31872,0.0744 -8.64096,-0.0543 -13.89221,-0.0808 m 52.66199,212.99469 c 6.06961,5.93024 12.126,11.87414 18.22006,17.77917 1.20435,1.16693 2.54608,2.32001 4.4136,1.36939 1.60828,-0.81873 1.60782,-2.38818 1.60865,-3.90772 0.008,-13.99163 -0.0197,-27.98339 0.0378,-41.97479 0.0135,-3.2876 -1.30579,-4.97546 -4.71085,-4.96985 -13.15875,0.0216 -26.31762,-0.0133 -39.47644,-0.007 -1.49951,7.3e-4 -3.16644,-0.0288 -3.83404,1.67206 -0.5842,1.48834 0.70294,2.4486 1.46261,3.48986 6.68286,9.15961 14.06134,17.73786 22.27866,26.54871 m 121.1829,-247.41729 c 0.0175,-8.47922 -0.0892,-16.96133 0.10672,-25.43643 0.0934,-4.04166 -1.55649,-5.85605 -5.52075,-5.84912 -8.64542,0.0151 -17.29096,-0.0249 -25.93643,-0.0269 -1.92664,-4.2e-4 -4.09046,0.40656 -4.46811,2.42014 -0.7966,4.24707 -1.55149,9.19263 2.29468,12.07788 9.16461,6.87497 18.7673,13.1687 28.23846,19.63062 2.53635,1.73046 4.37436,1.00692 5.28543,-2.81617 m -48.30179,276.64347 c -10.14722,-3.7e-4 -20.29464,-0.0355 -30.44137,0.0334 -1.67533,0.0114 -3.92322,-0.74914 -4.55542,1.8266 -0.54245,2.2099 1.09304,3.31964 2.62036,4.36713 11.40784,7.82403 23.38696,14.64465 36.05258,20.21313 4.29025,1.88617 6.16022,0.73462 6.49829,-4.10528 0.30069,-4.30524 0.19598,-8.64606 0.12274,-12.96869 -0.13019,-7.68189 -1.82388,-9.3266 -10.29718,-9.36633 M 214.80825,535.93137 c 0.0378,-13.92115 1.82724,-14.77314 -12.88382,-14.05756 -5.13736,0.24982 -6.14429,1.9245 -4.55725,6.70917 3.78241,11.40338 8.92364,22.21606 14.44119,32.8565 0.54349,1.0481 0.92218,2.56671 2.99963,2.41828 0,-9.02027 0,-17.97962 2.5e-4,-27.92639 z"
   id="path2" /><path
   fill="#000000"
   opacity="1"
   stroke="none"
   d="m 653.15722,463.72556 c -12.80567,-0.004 -25.11176,0.0286 -37.41736,-0.0253 -8.7276,-0.0382 -12.78327,-4.09558 -12.88715,-12.85572 -0.069,-5.81939 -0.12597,-11.64377 0.0327,-17.4599 0.19592,-7.17883 4.07739,-11.14163 11.25683,-11.19006 17.95911,-0.12125 35.91999,-0.11487 53.87921,-0.006 6.97266,0.0423 11.25586,4.31195 11.42414,11.16647 0.15088,6.14911 0.14935,12.30792 -0.003,18.45703 -0.19049,7.69611 -4.53027,11.81214 -12.31592,11.90204 -4.48938,0.0519 -8.97986,0.0107 -13.96966,0.0115 z"
   id="path3" />
</svg>
